<svg width="894" height="140" viewBox="0 0 894 140" fill="none" xmlns="http://www.w3.org/2000/svg">
<path d="M147.456 0C177.538 0 201.917 24.2308 201.917 54.1302C201.917 84.0296 177.538 108.063 147.456 108.063H54.262C24.1799 108.059 0 84.0259 0 54.1302C0 24.2344 24.1799 0 54.262 0H147.456ZM108.719 54.1302C108.719 75.6255 125.825 92.43 147.448 92.43C169.071 92.43 186.178 75.6255 186.178 54.1302C186.178 32.6348 168.876 15.6363 147.448 15.6363C126.021 15.6363 108.719 32.8326 108.719 54.1302ZM93.1864 54.1302C93.1864 39.0834 99.2802 25.4062 109.11 15.6363H100.853C79.2267 15.6363 62.1243 32.8326 62.1243 54.1302C62.1243 75.4278 78.4419 91.65 99.2839 92.43H109.114C99.2765 82.66 93.1827 69.1769 93.1827 54.1302H93.1864ZM15.5329 54.1302C15.5329 75.4278 32.639 92.43 54.262 92.43H62.5185C52.6888 82.66 46.595 69.1769 46.595 54.1302C46.595 39.0834 52.6888 25.4062 62.5185 15.6363H54.262C32.6353 15.6363 15.5329 32.8326 15.5329 54.1302Z" fill="#151515"/>
<path d="M282.054 7.42675C276.675 4.50089 270.53 3.03613 263.618 3.03613C256.706 3.03613 249.916 4.81948 244.029 8.3825C238.137 11.9455 233.337 16.7829 229.627 22.8909V4.56314H212.344V103.628H229.627V60.1068C229.627 51.5819 230.876 44.1995 233.37 37.9633C235.868 31.7308 239.353 26.9263 243.837 23.5537C248.317 20.1848 253.63 18.4967 259.775 18.4967C266.562 18.4967 271.937 20.6279 275.909 24.8903C279.877 29.1564 281.862 34.5944 281.862 41.2114V103.628H299.337V37.967C299.337 31.0936 297.801 25.0185 294.728 19.738C291.655 14.4576 287.429 10.3563 282.054 7.42675Z" fill="#151515"/>
<path d="M370.872 3.79756C368.952 3.29222 366.263 3.03223 362.807 3.03223C356.278 3.03223 350.037 5.06824 344.084 9.14027C338.13 13.216 334 18.3023 331.697 24.4104V4.5629H314.414V103.628H331.697V66.0242C331.697 55.7159 332.975 47.0336 335.54 39.9698C338.1 32.906 341.589 27.6292 346.007 24.1284C350.424 20.6313 355.321 18.8809 360.7 18.8809C364.542 18.8809 367.932 19.2618 370.879 20.0271V3.79756H370.872Z" fill="#151515"/>
<path d="M456.265 87.9775C455.112 86.8313 454.537 84.799 454.537 81.8695V37.5861C454.537 30.8409 452.838 24.861 449.449 19.6428C446.056 14.4246 441.288 10.3563 435.143 7.42675C428.998 4.50089 421.891 3.03613 413.826 3.03613C405.761 3.03613 399.295 4.37273 393.278 7.04591C387.258 9.7191 382.458 13.5677 378.877 18.5955C375.292 23.6233 373.177 29.508 372.54 36.2532H389.823C390.331 30.2733 392.733 25.63 397.025 22.3197C401.314 19.013 406.914 17.3578 413.829 17.3578C420.745 17.3578 426.695 19.013 430.921 22.3197C435.147 25.63 437.258 29.7643 437.258 34.7262C437.258 37.2749 436.458 39.2779 434.856 40.739C433.253 42.2038 430.917 43.1266 427.844 43.5074L404.991 46.5614C394.236 47.964 385.947 51.2706 380.122 56.4888C374.293 61.7071 371.383 68.5145 371.383 76.9113C371.383 82.514 372.823 87.4429 375.704 91.7053C378.586 95.9714 382.587 99.2781 387.708 101.633C392.825 103.987 398.716 105.163 405.378 105.163C412.93 105.163 419.717 103.574 425.733 100.391C431.75 97.2128 436.038 92.9467 438.599 87.604C438.853 93.4594 440.581 97.7548 443.783 100.49C446.98 103.229 451.273 104.595 456.648 104.595C458.951 104.595 461.574 104.277 464.521 103.639V89.3251C463.493 89.5814 462.473 89.7059 461.449 89.7059C459.146 89.7059 457.414 89.1347 456.265 87.9885V87.9775ZM437.446 59.3451C437.446 69.0162 434.819 76.7135 429.572 82.4407C424.322 88.1679 416.961 91.0315 407.489 91.0315C401.981 91.0315 397.501 89.7279 394.045 87.117C390.589 84.5097 388.861 80.9796 388.861 76.5231C388.861 71.8176 390.427 68.0604 393.566 65.2628C396.701 62.4651 401.406 60.5572 407.68 59.5356L437.446 54.9545V59.3451Z" fill="#151515"/>
<path d="M602.608 7.23633C597.358 4.43864 591.213 3.03613 584.172 3.03613C577.132 3.03613 570.375 4.94398 564.679 8.76334C558.979 12.5827 554.724 17.5446 551.909 23.6526C549.989 17.0392 546.147 11.9455 540.385 8.3825C534.622 4.82314 527.582 3.03613 519.259 3.03613C512.215 3.03613 506.136 4.81948 501.014 8.3825C495.893 11.9455 492.051 16.8451 489.49 23.0814V4.56314H472.207V103.628H489.49V53.9988C489.49 47.0009 490.514 40.7976 492.563 35.389C494.607 29.9804 497.584 25.7509 501.493 22.6969C505.399 19.6428 510.041 18.1158 515.416 18.1158C522.203 18.1158 527.449 20.1518 531.163 24.2239C534.873 28.2996 536.733 33.8327 536.733 40.8306V103.628H554.208V53.9988C554.208 43.1852 556.481 34.4991 561.024 27.9444C565.567 21.3932 571.937 18.1158 580.134 18.1158C586.921 18.1158 592.2 20.1518 595.977 24.2239C599.753 28.2996 601.643 33.8327 601.643 40.8306V103.628H618.926V37.2016C618.926 30.3282 617.515 24.3191 614.7 19.1631C611.882 14.0108 607.851 10.034 602.601 7.23267L602.608 7.23633Z" fill="#151515"/>
<path d="M705.235 9.62022C698.128 5.22961 689.71 3.03613 679.98 3.03613C673.193 3.03613 666.823 4.50089 660.869 7.42675C654.915 10.3563 650.594 14.106 647.908 18.6871V4.56314H630.625V139.325H647.908V90.2699C651.106 94.5982 655.59 98.1612 661.352 100.959C667.114 103.757 673.13 105.159 679.405 105.159C689.135 105.159 697.616 102.933 704.852 98.4798C712.084 94.0269 717.589 87.9519 721.369 80.2509C725.145 72.5536 727.035 63.8053 727.035 54.0061C727.035 44.2068 725.178 35.4622 721.464 27.7613C717.751 20.064 712.342 14.0182 705.235 9.62755V9.62022ZM705.331 72.8026C702.767 78.2112 699.09 82.4114 694.289 85.3995C689.489 88.3913 684.014 89.8854 677.868 89.8854C671.723 89.8854 666.248 88.3913 661.448 85.3995C656.647 82.4114 652.963 78.2112 650.406 72.8026C647.842 67.394 646.567 61.1285 646.567 54.0024C646.567 46.8764 647.845 40.8013 650.406 35.3927C652.966 29.984 656.647 25.7875 661.448 22.7957C666.248 19.8076 671.723 18.3099 677.868 18.3099C684.014 18.3099 689.647 19.8076 694.385 22.7957C699.119 25.7875 702.77 29.9547 705.331 35.2974C707.892 40.6438 709.17 46.88 709.17 54.0024C709.17 61.1248 707.888 67.3976 705.331 72.8026Z" fill="#151515"/>
<path d="M804.989 9.3346C798.077 5.1344 789.943 3.03613 780.599 3.03613C771.256 3.03613 762.355 5.29552 755.056 9.81064C747.758 14.3294 742.22 20.4704 738.444 28.23C734.667 35.9932 732.777 44.584 732.777 53.9988C732.777 63.4135 734.726 72.008 738.635 79.7675C742.541 87.5308 748.17 93.7011 755.535 98.2821C762.896 102.863 771.44 105.155 781.174 105.155C788.856 105.155 795.801 103.881 802.012 101.34C808.22 98.7947 813.404 95.012 817.567 89.9806C821.727 84.9564 824.383 78.9436 825.536 71.9421H808.637C807.483 77.6693 804.44 82.1258 799.514 85.3043C794.585 88.4865 788.598 90.0758 781.557 90.0758C771.956 90.0758 764.304 86.8643 758.608 80.4377C753.527 74.7105 750.72 66.9729 750.167 57.2469H825.728C825.982 54.5737 826.111 52.0946 826.111 49.8022C826.236 41.2773 824.479 33.4519 820.831 26.3258C817.184 19.1997 811.901 13.5385 804.989 9.33826V9.3346ZM751.029 43.1193C751.637 40.0213 752.529 37.1247 753.711 34.4332C756.143 28.8965 759.665 24.667 764.274 21.7411C768.883 18.8152 774.325 17.3505 780.599 17.3505C785.975 17.3505 790.65 18.4344 794.618 20.5949C798.586 22.7591 801.659 25.8131 803.836 29.757C806.01 33.7045 807.292 38.1574 807.675 43.1193H751.026H751.029Z" fill="#151515"/>
<path d="M885.932 3.03589C879.403 3.03589 873.162 5.0719 867.209 9.14393C861.255 13.2196 857.125 18.306 854.822 24.414V4.5629H837.539V103.628H854.822V66.0242C854.822 55.7159 856.1 47.0336 858.661 39.9698C861.222 32.906 864.711 27.6292 869.128 24.1284C873.545 20.6313 878.442 18.8809 883.821 18.8809C887.66 18.8809 891.053 19.2618 894.001 20.0271V3.79756C892.081 3.29222 889.392 3.03223 885.936 3.03223L885.932 3.03589Z" fill="#151515"/>
</svg>
